<?xml version="1.0" standalone="no"?><!DOCTYPE svg PUBLIC "-//W3C//DTD SVG 1.1//EN" "http://www.w3.org/Graphics/SVG/1.1/DTD/svg11.dtd"><svg t="1742286594643" class="icon" viewBox="0 0 1158 1024" version="1.1" xmlns="http://www.w3.org/2000/svg" p-id="2818" xmlns:xlink="http://www.w3.org/1999/xlink" width="226.171875" height="200"><path d="M935.170173 1024H262.709487q-97.52381 0-97.52381-56.699889l-1.133997-5.669989V470.609081h55.565891v457.001107q0 41.957918 43.091916 41.957918h644.110742q21.545958 0 26.648948-7.937984t5.10299-35.153932V470.609081h55.565891v491.021041q0 34.019934-13.040974 48.194906T935.170173 1024z m210.923589-604.420819q-89.585825-68.039867-268.757476-201.851606L592.702842 4.535991q-4.535991-4.535991-13.607973-4.535991t-13.607973 4.535991L12.095976 419.579181q-13.607973 10.20598-11.906976 26.081949t13.607973 23.813953q11.906977 7.937984 25.51495-2.267996L579.094869 62.369878l539.782946 404.837209q13.607973 10.20598 25.51495 2.267996t13.607973-23.813953q1.700997-15.875969-11.906976-26.081949z" p-id="2819"></path></svg>