<?xml version="1.0" standalone="no"?><!DOCTYPE svg PUBLIC "-//W3C//DTD SVG 1.1//EN" "http://www.w3.org/Graphics/SVG/1.1/DTD/svg11.dtd"><svg t="1742286700666" class="icon" viewBox="0 0 1024 1024" version="1.1" xmlns="http://www.w3.org/2000/svg" p-id="3304" xmlns:xlink="http://www.w3.org/1999/xlink" width="200" height="200"><path d="M738.995074 131.152709q94.581281 59.270936 149.438424 158.26601T943.29064 501.91133q0 119.802956-60.532019 223.211823-58.009852 99.625616-157.635468 157.635468-102.147783 60.53202-221.950739 60.532019-114.758621 0-213.753695-55.487684T131.152709 737.73399h6.305419q163.940887 0 303.921182-81.970443 136.197044-80.70936 215.645321-216.906404 81.970443-139.980296 81.970443-302.660099v-5.044335zM639.369458 0q18.916256 66.837438 18.916256 136.197044 0 141.241379-71.881773 262.305419-68.098522 118.541872-186.640394 186.640394-121.064039 71.881773-262.305419 71.881774-69.359606 0-137.458128-18.916257 30.26601 110.975369 103.408867 198.62069T278.699507 973.55665q105.931034 50.44335 224.472907 50.44335 141.241379 0 263.566502-71.881773 117.280788-68.098522 186.640394-186.640394 70.62069-121.064039 70.62069-263.566503 0-117.280788-50.44335-223.211823-47.921182-102.147783-135.566502-175.921182T639.369458 0z" p-id="3305"></path></svg>