<?xml version="1.0" standalone="no"?><!DOCTYPE svg PUBLIC "-//W3C//DTD SVG 1.1//EN" "http://www.w3.org/Graphics/SVG/1.1/DTD/svg11.dtd"><svg t="1742286608233" class="icon" viewBox="0 0 1690 1024" version="1.1" xmlns="http://www.w3.org/2000/svg" p-id="2980" xmlns:xlink="http://www.w3.org/1999/xlink" width="330.078125" height="200"><path d="M440.93141 117.066q-14.697714-14.697714-35.927745-14.697714t-35.927744 14.697714L14.697714 471.444207q-14.697714 14.697714-14.697714 35.927745t14.697714 35.927744l354.378207 354.378207q14.697714 14.697714 35.927744 14.697714t35.927745-14.697714q14.697714-14.697714 14.697713-35.927744t-14.697713-35.927745L122.480947 507.371952l318.450463-318.450463q14.697714-16.330793 14.697713-36.744284t-14.697713-35.111205z m1216.644075 354.378207L1303.197278 117.066q-14.697714-14.697714-35.927745-14.697714t-35.927744 14.697714q-14.697714 14.697714-14.697714 35.927745t14.697714 35.927744l318.450463 318.450463-318.450463 318.450462q-14.697714 14.697714-14.697714 35.927745t14.697714 35.927744q14.697714 14.697714 35.927744 14.697714t35.927745-14.697714l354.378207-354.378207q14.697714-14.697714 14.697714-35.927744t-14.697714-35.927745zM1019.04148 2.750449q-19.596952-6.532317-38.377363 2.449619T953.718309 33.778956L623.836291 945.037203q-8.165396 19.596952 0.81654 39.193903t30.211967 26.129269q19.596952 6.532317 38.377363-2.449619T720.187969 979.331868l329.882018-911.258247q6.532317-19.596952-2.449619-39.193903T1019.04148 2.750449z" p-id="2981"></path></svg>