<?xml version="1.0" standalone="no"?><!DOCTYPE svg PUBLIC "-//W3C//DTD SVG 1.1//EN" "http://www.w3.org/Graphics/SVG/1.1/DTD/svg11.dtd"><svg t="1742286724017" class="icon" viewBox="0 0 1130 1024" version="1.1" xmlns="http://www.w3.org/2000/svg" p-id="3466" xmlns:xlink="http://www.w3.org/1999/xlink" width="220.703125" height="200"><path d="M565.356371 512zM47.827214 270.928726l452.285097 195.732181q22.116631 12.164147 46.444924 14.37581 19.904968 2.211663 38.704104-1.105831 14.37581-3.317495 26.539957-8.846653l9.952484-4.423326 458.920086-192.414687 2.211663-3.317494q17.693305-7.740821 17.693305-30.963283 0-12.164147-7.187905-22.116631T1075.144708 206.790497L621.75378 11.058315q-27.645788-11.058315-55.291577-11.058315-19.904968 0-37.598272 5.529158L50.038877 206.790497q-9.952484 3.317495-16.034557 12.717062T27.922246 239.965443q0 11.058315 5.529158 18.799136t14.37581 12.164147z m0 0z m517.529157 419.110151q-8.846652 0-11.058315-2.211663L15.758099 450.073434q-9.952484-4.423326-13.822894-15.481641t0-21.563715Q5.805616 402.522678 16.863931 398.652268t22.116631 0.552916l526.375809 232.224622 526.37581-232.224622q11.058315-4.423326 22.116631-0.552916t14.928726 14.37581q3.87041 10.5054 0 21.563715t-13.822894 15.481641L576.414687 687.827214q-2.211663 2.211663-11.058316 2.211663z m0 166.980561q-8.846652 0-11.058315-2.211663L15.758099 617.053996q-9.952484-4.423326-13.822894-15.481642t0.552916-21.010799q4.423326-9.952484 15.481641-13.822894t21.0108 1.658747l526.375809 230.012959 526.37581-230.012959q11.058315-4.423326 22.116631 0t14.928726 14.928726q3.87041 10.5054 0 21.563715t-13.822894 14.37581L576.414687 857.019438z m0 166.980562q-8.846652 0-11.058315-2.211663L15.758099 784.034557q-9.952484-4.423326-13.822894-15.481641t0-21.563715Q5.805616 736.483801 16.863931 732.613391t22.116631 0.552916l526.375809 232.224622 526.37581-232.224622q11.058315-4.423326 22.116631-0.552916t14.928726 14.37581q3.87041 10.5054 0 21.563715t-13.822894 15.481641L576.414687 1021.788337q-2.211663 2.211663-11.058316 2.211663z" p-id="3467"></path></svg>